<mxfile host="app.diagrams.net" modified="2024-03-19T18:14:34.056Z" agent="Mozilla/5.0 (Windows NT 10.0; Win64; x64) AppleWebKit/537.36 (KHTML, like Gecko) Chrome/122.0.0.0 Safari/537.36 Edg/122.0.0.0" version="24.0.7" etag="799hrNBb8j7Zk4M2Gp6u" type="github">
  <diagram name="Page-1" id="QUUZMIHogQgfO9D1SSY1">
    <mxGraphModel>
      <root>
        <mxCell id="0" />
        <mxCell id="1" parent="0" />
      </root>
    </mxGraphModel>
  </diagram>
</mxfile>
